PathFileType	3	(X/Y/Z)	RCH0000002 BBF 03.c3d
DataRate	CameraRate	NumFrames	NumMarkers	Units	OrigDataRate	OrigDataStartFrame	OrigNumFrames
100.0	100.0	14	23	mm	100.0	355	376
Frame#	Time	T2			T10			LASI			LPSI			RPSI			LANK			LMED			LTOE			RPAT			RANK			RMED			RHEE			RTOE			MAN			LPAT			RKNE			LKNE			RASI			LHEE			RTHI			LTHI			RTIB			LTIB			
		X1	Y1	Z1	X2	Y2	Z2	X3	Y3	Z3	X4	Y4	Z4	X5	Y5	Z5	X6	Y6	Z6	X7	Y7	Z7	X8	Y8	Z8	X9	Y9	Z9	X10	Y10	Z10	X11	Y11	Z11	X12	Y12	Z12	X13	Y13	Z13	X14	Y14	Z14	X15	Y15	Z15	X16	Y16	Z16	X17	Y17	Z17	X18	Y18	Z18	X19	Y19	Z19	X20	Y20	Z20	X21	Y21	Z21	X22	Y22	Z22	X23	Y23	Z23	

355	3.540	-390.21120	21.56660	982.39205	-378.92672	-0.74506	794.89022	-301.66978	96.09225	651.79917	-398.69003	21.40294	706.76643	-387.86606	-47.46766	701.48875	-492.69875	116.02728	81.59138	-485.48049	48.30068	102.76173	-442.95063	80.82105	71.38864	-152.14728	-29.78271	420.81670	-281.94732	-102.76065	125.94894	-288.87407	-33.27559	131.25753	-320.52791	-68.66109	161.06148	-238.34993	-68.93294	107.14272	-259.15308	16.76245	952.12378	-356.23521	62.86255	376.53953	-191.90105	-80.80458	373.75101	-409.25834	120.63831	348.74960	-270.12669	-78.76540	646.29844	-526.56359	77.31248	119.95578	-223.35063	-154.26103	478.47825	-385.02317	185.71785	473.92183	-231.46368	-155.42344	278.01298	-452.57988	184.07657	234.80469	
356	3.550	-380.83157	20.23663	981.74393	-370.82443	-1.72533	794.15672	-293.84380	96.09336	651.34841	-390.54424	20.42415	705.55220	-379.39135	-48.34541	699.88662	-491.74535	116.48768	82.37025	-484.16353	48.84393	103.51544	-442.14798	81.28283	71.47015	-141.97972	-27.83355	421.96361	-258.71868	-103.00825	122.62972	-267.36080	-33.72515	127.41878	-299.47184	-69.75237	156.06790	-215.21074	-68.36669	105.25975	-249.86672	15.42571	950.62230	-351.31607	63.38272	375.63505	-179.79582	-79.45095	374.11036	-405.01888	120.98256	348.73001	-261.15277	-78.65659	645.16642	-525.12359	77.86517	121.27272	-212.13941	-153.12722	478.44715	-379.26125	185.85856	473.70246	-213.72090	-154.82546	276.63720	-449.88170	184.51058	235.26035	
357	3.560	-371.24488	18.75719	980.95127	-362.44819	-2.75068	793.29832	-285.68996	96.04350	650.75285	-382.11779	19.43804	704.16031	-370.66516	-49.23910	698.13725	-490.67597	116.93872	83.21257	-482.73374	49.35724	104.28617	-441.26702	81.70761	71.54292	-132.37926	-25.67947	422.23721	-236.24971	-103.27281	118.95788	-246.78700	-34.26317	123.27544	-279.16764	-71.02343	150.78069	-193.02851	-67.69495	102.95620	-240.34830	14.02939	949.05004	-345.97760	63.80937	374.59714	-168.26267	-78.02599	373.79613	-400.31607	121.22902	348.59012	-251.95525	-78.61435	643.90448	-523.53523	78.40657	122.66979	-200.97565	-151.87286	477.90890	-373.05725	185.92578	473.33991	-196.45787	-154.19425	274.74683	-446.82038	184.87698	235.69820	
358	3.570	-361.46910	17.13427	980.00239	-353.77331	-3.80182	792.29616	-277.18824	95.94836	649.98251	-373.39388	18.46423	702.58529	-361.66747	-50.13053	696.25520	-489.47439	117.35890	84.12805	-481.17687	49.81641	105.07714	-440.29859	82.07785	71.60685	-123.27866	-23.36415	421.61209	-214.87300	-103.57678	114.97772	-227.42816	-34.90153	118.88771	-259.88807	-72.46321	145.29328	-172.11331	-66.97384	100.26056	-230.61191	12.58023	947.41868	-340.14969	64.12875	373.38573	-157.27164	-76.56942	372.79086	-395.08388	121.35716	348.28209	-242.51724	-78.63209	642.51987	-521.76573	78.90949	124.15810	-189.83683	-150.52109	476.86150	-366.37909	185.90872	472.79054	-179.82017	-153.54928	272.37069	-443.34356	185.15022	236.09483	
359	3.580	-351.52585	15.37902	978.89020	-344.78024	-4.85457	791.13646	-268.32691	95.81168	649.00819	-364.36312	17.52873	700.83082	-352.38686	-50.99564	694.26866	-488.11325	117.72453	85.12830	-479.47193	50.19659	105.89398	-439.22926	82.37207	71.66344	-114.60376	-20.95456	420.10708	-194.92658	-103.94897	110.75551	-209.55105	-35.65283	114.33817	-241.90673	-74.05628	139.72059	-152.77025	-66.27184	97.22794	-220.67615	11.08736	945.74335	-333.75808	64.32202	371.95790	-146.79195	-75.13212	371.11349	-389.25329	121.34168	347.75258	-232.83274	-78.70441	641.02997	-519.77121	79.34764	125.75193	-178.72509	-149.11047	475.32535	-359.19983	185.79241	472.00764	-163.96323	-152.91870	269.56234	-439.38648	185.30153	236.42191	
360	3.590	-341.43962	13.50858	977.61437	-335.45703	-5.87960	789.81343	-259.10391	95.63418	647.80436	-355.02520	16.66314	698.91131	-342.82296	-51.80526	692.22033	-486.54954	118.01275	86.22704	-477.58864	50.47516	106.74584	-438.03811	82.56622	71.71678	-106.28072	-18.54070	417.78778	-176.72843	-104.42110	106.37781	-193.39431	-36.52848	109.72922	-225.47816	-75.78335	134.19350	-135.27665	-65.66303	93.93879	-210.56373	9.56254	944.04325	-326.72670	64.36427	370.27151	-136.79764	-73.77533	368.82135	-382.75288	121.15314	346.94635	-222.90880	-78.82834	639.46412	-517.49420	79.69978	127.46874	-167.66949	-147.69604	473.34545	-351.49620	185.55725	470.94500	-149.04381	-152.33953	266.39714	-434.86879	185.30086	236.64735	
361	3.600	-331.23691	11.54665	976.18327	-325.80150	-6.84290	788.33189	-249.52780	95.41265	646.35239	-345.39013	15.90271	696.85289	-332.98810	-52.52674	690.16703	-484.72116	118.20433	87.44029	-475.48521	50.63431	107.64647	-436.69314	82.63559	71.77491	-98.24389	-16.23235	414.76517	-160.54903	-105.02352	101.94753	-179.14873	-37.53657	105.17796	-210.81676	-77.62193	128.85118	-119.85832	-65.21911	90.49463	-200.30093	8.02027	942.34212	-318.98158	64.22395	368.29002	-127.27255	-72.56866	366.00890	-375.51076	120.75923	345.81127	-212.76681	-79.00435	637.86453	-514.86221	79.95306	129.32872	-156.72530	-146.34851	470.99168	-343.24690	185.17917	469.56146	-135.20967	-151.85686	262.96752	-429.69387	185.11906	236.73733	
362	3.610	-320.94547	9.52381	974.61536	-315.82296	-7.70716	786.70926	-239.61785	95.13940	644.64385	-335.47863	15.28368	694.69374	-322.90799	-53.12627	688.17769	-482.54543	118.28584	88.78642	-473.10678	50.66287	108.61474	-435.14805	82.55712	71.85114	-90.44328	-14.15299	411.18964	-146.58544	-105.78062	97.57790	-166.93960	-38.67999	100.80872	-198.07698	-79.54723	123.83158	-106.66795	-65.00127	87.01102	-189.91700	6.47783	940.66839	-310.45580	63.86314	365.98828	-118.21409	-71.58678	362.80281	-367.45774	120.12664	344.30444	-202.44255	-79.23710	636.28576	-511.78796	80.10473	131.35387	-145.97016	-145.15113	468.35719	-334.43118	184.63057	467.82608	-122.58856	-151.52176	259.37715	-423.75190	184.72970	236.65950	
363	3.620	-310.59360	7.47738	972.93994	-305.54316	-8.43392	784.97661	-229.40365	94.80210	642.68369	-325.32157	14.83990	692.48355	-312.62107	-53.57199	686.33002	-479.92030	118.25073	90.28587	-470.38461	50.55701	109.67450	-433.33957	82.31174	71.96513	-82.85087	-12.43105	407.24092	-134.94059	-106.70679	93.38455	-156.81360	-39.95493	96.74384	-187.33784	-81.53299	119.26105	-95.76862	-65.05309	83.60834	-179.44350	4.95507	939.05501	-301.09514	63.23888	363.35865	-109.63529	-70.90485	359.35370	-358.53171	119.22341	342.39897	-191.98494	-79.53584	634.79274	-508.17170	80.16194	133.56635	-135.49784	-144.19431	465.55409	-325.02811	183.88194	465.72356	-111.27804	-151.38778	255.73428	-416.92670	184.11046	236.38722	
364	3.630	-300.20965	5.45075	971.19702	-294.99630	-8.98647	783.17855	-218.92385	94.38420	640.49270	-314.95861	14.59904	690.28222	-302.17664	-53.83736	684.70588	-476.72847	118.09921	91.96046	-467.23641	50.31980	110.85336	-431.18616	81.88669	72.14335	-75.46472	-11.18926	403.11458	-125.61135	-107.80365	89.47646	-148.73269	-41.35019	93.09358	-178.59418	-83.55259	115.24402	-87.12539	-65.39561	80.40138	-168.91368	3.47413	937.53887	-290.86365	62.30584	360.41689	-101.56478	-70.59322	355.82518	-348.68274	118.02164	340.09051	-181.45350	-79.91408	633.45739	-503.90560	80.13929	135.98643	-125.41011	-143.56824	462.70685	-315.01712	182.90427	463.25930	-101.33769	-151.50642	252.14514	-409.10622	183.24418	235.90471	
365	3.640	-289.82149	3.49208	969.43629	-284.22801	-9.33319	781.37191	-208.22454	93.86600	638.10910	-304.43600	14.57882	688.15770	-291.63180	-53.90456	683.38591	-472.84435	117.83688	93.83216	-463.56781	49.95950	112.18043	-428.58810	81.27742	72.41861	-68.31017	-10.53327	399.00649	-118.48797	-109.05896	85.94684	-142.57634	-42.84742	89.94668	-171.75674	-85.58012	111.85431	-80.60695	-66.02531	77.48939	-158.36162	2.05889	936.15989	-279.74843	61.02022	357.20677	-94.04459	-70.71165	352.38118	-337.87853	116.50046	337.40274	-170.91463	-80.38874	632.35405	-498.88017	80.05466	138.62971	-115.80775	-143.35447	459.94353	-304.38000	181.67212	460.46371	-92.78486	-151.92197	248.70764	-400.19542	182.11940	235.21261	
366	3.650	-279.45622	1.65233	967.71518	-273.29339	-9.45094	779.62310	-197.35708	93.22629	635.58880	-293.80386	14.78383	686.18299	-281.04757	-53.76757	682.44384	-468.14322	117.47248	95.92114	-459.27491	49.48707	113.68299	-425.42940	80.48883	72.82851	-61.43765	-10.54081	395.09700	-113.36564	-110.44749	82.86541	-138.15228	-44.42202	87.36278	-166.66130	-87.59121	109.12931	-75.99767	-66.91542	74.94788	-147.82156	0.73421	934.95961	-267.76280	59.34496	353.80246	-87.12588	-71.30381	349.17316	-326.10942	114.64895	334.39094	-160.43725	-80.97864	631.55398	-492.99195	79.92363	141.50403	-106.78152	-143.61733	457.38591	-293.10434	180.16697	457.39491	-85.59487	-152.66651	245.50603	-390.12985	180.73097	234.33318	
367	3.660	-269.13978	-0.01722	966.09618	-262.25416	-9.32815	778.00451	-186.37581	92.44441	633.00412	-283.11332	15.20324	684.43270	-270.48461	-53.43433	681.94111	-462.51118	117.01508	98.24321	-454.24795	48.91304	115.38221	-421.58135	79.53573	73.41258	-54.91730	-11.25279	391.53700	-109.96667	-111.93341	80.27328	-135.21460	-46.04466	85.36802	-163.08578	-89.56346	107.06792	-73.01869	-68.01994	72.82354	-137.32697	-0.47495	933.97962	-254.94723	57.25561	350.30810	-80.86305	-72.39260	346.32867	-313.39236	112.46888	331.14261	-150.08794	-81.70253	631.11986	-486.15160	79.75368	144.60614	-98.40419	-144.39661	455.13973	-281.18827	178.38046	454.13938	-79.70537	-153.75569	242.60675	-378.88774	179.08067	233.31432	
368	3.670	-258.89663	-1.46787	964.64351	-251.17536	-8.96707	776.59005	-175.33576	91.50262	630.44095	-272.41375	15.81008	682.97900	-259.99915	-52.92756	681.92244	-455.85463	116.47115	100.80664	-448.37559	48.24433	117.28855	-416.90756	78.44219	74.20839	-48.83083	-12.66786	388.43756	-107.96991	-113.47367	78.18128	-133.48616	-47.68269	83.95450	-160.77263	-91.47596	105.63294	-71.35478	-69.27959	71.13278	-126.90975	-1.54460	933.25949	-241.36770	54.74626	346.85382	-75.30686	-73.97691	343.94272	-299.77307	109.97678	327.77495	-139.92640	-82.57690	631.10052	-478.29112	79.53883	147.91844	-90.72437	-145.70258	453.28628	-268.64559	176.31722	450.80995	-75.02413	-155.18601	240.05595	-366.49839	177.17822	232.23110	
